<svg width="493" height="138" viewBox="0 0 493 138" fill="none" xmlns="http://www.w3.org/2000/svg">
<path opacity="0.35813" fill-rule="evenodd" clip-rule="evenodd" d="M16.2716 89.7649C25.2581 89.7649 32.5432 82.4798 32.5432 73.4933C32.5432 64.5067 25.2581 57.2217 16.2716 57.2217C7.28504 57.2217 0 64.5067 0 73.4933C0 82.4798 7.28504 89.7649 16.2716 89.7649Z" fill="#EA550F"/>
<path opacity="0.35813" fill-rule="evenodd" clip-rule="evenodd" d="M175.937 33.8305C182.115 33.8305 187.123 28.822 187.123 22.6437C187.123 16.4655 182.115 11.457 175.937 11.457C169.758 11.457 164.75 16.4655 164.75 22.6437C164.75 28.822 169.758 33.8305 175.937 33.8305Z" fill="#5C5C5C"/>
<path opacity="0.459748" fill-rule="evenodd" clip-rule="evenodd" d="M303.058 128.409C316.538 128.409 327.466 117.482 327.466 104.002C327.466 90.5223 316.538 79.5947 303.058 79.5947C289.579 79.5947 278.651 90.5223 278.651 104.002C278.651 117.482 289.579 128.409 303.058 128.409Z" fill="#FFC000"/>
<path opacity="0.459748" fill-rule="evenodd" clip-rule="evenodd" d="M477.098 95.5262C485.804 95.5262 492.861 88.4688 492.861 79.7631C492.861 71.0574 485.804 64 477.098 64C468.392 64 461.335 71.0574 461.335 79.7631C461.335 88.4688 468.392 95.5262 477.098 95.5262Z" fill="#FFC000"/>
<g style="mix-blend-mode:darken" opacity="0.578656">
<path fill-rule="evenodd" clip-rule="evenodd" d="M247.125 57.2216C253.865 57.2216 259.329 51.7578 259.329 45.0179C259.329 38.278 253.865 32.8142 247.125 32.8142C240.385 32.8142 234.921 38.278 234.921 45.0179C234.921 51.7578 240.385 57.2216 247.125 57.2216Z" fill="#E86202"/>
</g>
<g style="mix-blend-mode:darken" opacity="0.191746">
<path fill-rule="evenodd" clip-rule="evenodd" d="M406.281 98.9177C410.494 98.9177 413.908 95.5028 413.908 91.2904C413.908 87.0779 410.494 83.6631 406.281 83.6631C402.069 83.6631 398.654 87.0779 398.654 91.2904C398.654 95.5028 402.069 98.9177 406.281 98.9177Z" fill="#5C5C5C"/>
</g>
<g style="mix-blend-mode:darken" opacity="0.691758">
<path fill-rule="evenodd" clip-rule="evenodd" d="M128.647 137.563C141.285 137.563 151.529 127.318 151.529 114.681C151.529 102.044 141.285 91.7991 128.647 91.7991C116.01 91.7991 105.765 102.044 105.765 114.681C105.765 127.318 116.01 137.563 128.647 137.563Z" fill="#FFC000"/>
</g>
<path opacity="0.35813" fill-rule="evenodd" clip-rule="evenodd" d="M449.503 24.6781C456.242 24.6781 461.706 19.2144 461.706 12.4744C461.706 5.73453 456.242 0.270752 449.503 0.270752C442.763 0.270752 437.299 5.73453 437.299 12.4744C437.299 19.2144 442.763 24.6781 449.503 24.6781Z" fill="#EA550F"/>
</svg>
